<?xml version="1.0" standalone="no"?><!DOCTYPE svg PUBLIC "-//W3C//DTD SVG 1.1//EN" "http://www.w3.org/Graphics/SVG/1.1/DTD/svg11.dtd"><svg t="1648721532058" class="icon" viewBox="0 0 1024 1024" version="1.1" xmlns="http://www.w3.org/2000/svg" p-id="31578" xmlns:xlink="http://www.w3.org/1999/xlink" width="128" height="128"><defs><style type="text/css"></style></defs><path d="M547.904 530.048l306.112-307.008c65.92 78.016 105.856 178.752 105.856 288.96 0 119.36-46.976 227.584-123.072 307.904L547.904 530.048zM585.984 953.344c71.872-12.864 137.792-43.776 193.728-85.76L447.872 534.72 447.872 69.056C231.488 100.096 64.96 285.312 64 510.08 65.024 757.184 265.088 960 511.872 960c24.96 0 49.344-2.24 73.152-6.528C585.344 953.408 585.664 953.408 585.984 953.344zM806.08 174.656C727.296 105.92 624.64 64 511.872 64l0 405.824L806.08 174.656z" p-id="31579"></path></svg>