<?xml version="1.0" standalone="no"?><!DOCTYPE svg PUBLIC "-//W3C//DTD SVG 1.1//EN" "http://www.w3.org/Graphics/SVG/1.1/DTD/svg11.dtd"><svg t="1648721360327" class="icon" viewBox="0 0 1024 1024" version="1.1" xmlns="http://www.w3.org/2000/svg" p-id="17147" xmlns:xlink="http://www.w3.org/1999/xlink" width="128" height="128"><defs><style type="text/css"></style></defs><path d="M905.4 278.9h-17.9v-89.5c0-29.4-21.6-64.4-48-77.6 0 0-95-47.5-327.5-47.5s-327.6 47.5-327.6 47.5c-26.4 13.2-48 48.2-48 77.6v89.5h-17.8c-29.6 0.1-53.5 24-53.7 53.6v53.7c0.1 29.6 24.1 53.6 53.7 53.7h17.8v366.6c0.1 22.7 14.4 42.9 35.8 50.5v29.9c0 39.5 32 71.5 71.5 71.5s71.5-32 71.5-71.5v-26.8h393.4v26.8c0 39.5 32 71.5 71.5 71.5s71.5-32 71.5-71.5V857c21.4-7.6 35.8-27.8 35.8-50.5V439.8h17.9c29.6-0.1 53.6-24.1 53.7-53.7v-53.7c0-29.5-24-53.5-53.6-53.5zM333.1 153.6c0.1-9.8 8-17.8 17.9-17.9h322c9.8 0.1 17.8 8 17.9 17.9v35.7c0 9.9-8 17.9-17.9 18H351c-9.9-0.1-17.9-8.1-17.9-18v-35.7z m-80.4 634.9c-24.7 0-44.8-20-44.8-44.8 0-24.7 20-44.8 44.8-44.8 24.7 0 44.8 20 44.8 44.8-0.1 24.8-20.1 44.8-44.8 44.8z m518.6 0c-24.7 0-44.8-20-44.8-44.8 0-24.7 20-44.8 44.8-44.8 24.7 0 44.8 20 44.8 44.8 0 11.9-4.7 23.3-13.1 31.6s-19.8 13.2-31.7 13.2zM816 582.9c-0.1 9.8-8 17.8-17.9 17.8H225.9c-9.9 0-17.9-8-18-17.8V296.7c0.1-9.9 8.1-17.9 18-17.9h572.3c9.8 0.1 17.8 8 17.9 17.9v286.2z m0 0" p-id="17148"></path></svg>