<svg viewBox="0 0 1024 1024" version="1.1" xmlns="http://www.w3.org/2000/svg" width="128" height="128"><path d="M419.940937 0l160.694857 0.219429c49.956571 0.073143 90.331429 40.521143 90.404572 90.404571l0.073143 26.185143a426.496 426.496 0 0 1 87.844571 49.371428l21.504-12.361142a90.550857 90.550857 0 0 1 123.611429 33.133714l80.457142 138.971428c24.137143 41.691429 11.337143 94.646857-28.233142 120.905143l-4.900572 2.998857-21.650286 12.434286c3.657143 34.377143 3.291429 69.193143-1.609142 103.789714l15.36 8.777143c41.691429 24.137143 57.051429 76.507429 35.620571 119.076572l-2.56 4.681143-75.410286 130.706285c-24.137143 41.691429-76.507429 57.051429-119.003428 35.620572l-4.681143-2.486857-20.918857-12.068572c-26.331429 19.017143-54.710857 34.742857-84.333715 47.030857v35.913143c0.073143 48.201143-37.449143 87.625143-84.845714 90.550857l-5.851428 0.146286-160.694858-0.219429a90.550857 90.550857 0 0 1-90.404571-90.404571v-43.300571a428.178286 428.178286 0 0 1-70.948571-42.057143l-38.473143 22.162285a90.550857 90.550857 0 0 1-123.538286-33.133714l-80.457143-138.971428A90.550857 90.550857 0 0 1 45.156937 577.097143l4.900572-2.998857 39.204571-22.601143a422.180571 422.180571 0 0 1-0.292571-86.601143L45.595794 439.881143a90.550857 90.550857 0 0 1-35.620571-119.076572l2.486857-4.681142 75.483429-130.633143a90.550857 90.550857 0 0 1 119.003428-35.693715l4.681143 2.486858 37.888 21.942857c24.868571-19.456 51.712-35.84 79.872-49.078857V90.697143C329.097509 42.422857 366.692937 3.072 414.089509 0.146286L419.940937 0z m-0.146286 90.550857l0.073143 92.013714-52.004571 24.502858c-22.235429 10.459429-43.300571 23.405714-62.683429 38.546285l-48.128 37.522286-88.502857-51.126857-2.267428-1.243429L90.79808 361.325714l94.208 54.418286-5.851429 58.148571c-2.267429 22.674286-2.194286 45.421714 0.219429 68.022858l6.217143 58.660571-90.331429 51.931429 80.603429 139.117714 89.6-51.565714 47.542857 34.816a336.749714 336.749714 0 0 0 55.881143 33.133714l51.931428 24.429714 0.146286 100.717714 160.694857 0.219429-0.073143-96.402286 55.808-23.259428c23.405714-9.728 45.714286-22.162286 66.267429-36.937143l47.542857-34.157714 71.533714 41.325714 75.337143-130.779429-68.022857-39.350857 8.411429-60.416c3.803429-26.989714 4.169143-54.345143 1.243428-81.408l-6.290285-58.660571 72.777142-42.057143-80.530285-139.044572-72.411429 41.691429-47.542857-34.596571a336.822857 336.822857 0 0 0-69.339429-38.912l-55.661714-23.113143-0.219428-86.601143-160.694858-0.219429zM600.018651 350.500571a181.394286 181.394286 0 0 1 66.340572 247.515429 180.882286 180.882286 0 0 1-247.222857 66.267429 181.394286 181.394286 0 0 1-66.340572-247.588572 180.882286 180.882286 0 0 1 247.222857-66.194286zM431.204937 461.970286a90.770286 90.770286 0 0 0 33.206857 123.904c43.300571 25.014857 98.523429 10.24 123.538286-33.133715a90.770286 90.770286 0 0 0-28.672-121.051428l-4.534857-2.852572-4.681143-2.486857a90.331429 90.331429 0 0 0-118.857143 35.620572z" /></svg>
